<svg xmlns="http://www.w3.org/2000/svg" viewBox="0 0 960 560" role="img" aria-labelledby="title">
  <title>SparkRides City Map</title>
  <defs>
    <linearGradient id="bg" x1="0%" y1="0%" x2="100%" y2="100%">
      <stop offset="0%" stop-color="#EEF3FF"/>
      <stop offset="100%" stop-color="#DCE8FF"/>
    </linearGradient>
    <linearGradient id="route" x1="0%" y1="0%" x2="100%" y2="0%">
      <stop offset="0%" stop-color="#2F6FFF"/>
      <stop offset="100%" stop-color="#FF00BF"/>
    </linearGradient>
  </defs>
  <rect width="960" height="560" fill="url(#bg)"/>

  <g stroke="#C9D7F8" stroke-width="8" fill="none" opacity="0.95">
    <path d="M30 120h900"/>
    <path d="M30 220h900"/>
    <path d="M30 320h900"/>
    <path d="M30 420h900"/>
    <path d="M140 20v520"/>
    <path d="M300 20v520"/>
    <path d="M460 20v520"/>
    <path d="M620 20v520"/>
    <path d="M780 20v520"/>
  </g>

  <g stroke="#B2C5F4" stroke-width="12" fill="none" opacity="0.85">
    <path d="M70 500c120-120 170-280 350-260s220 180 470 80"/>
    <path d="M70 70c190 70 250 260 420 240s230-200 400-150"/>
  </g>

  <g stroke="url(#route)" stroke-width="14" fill="none" stroke-linecap="round">
    <path d="M120 470c150-80 230-250 390-230 140 15 220 170 340 150"/>
  </g>

  <g>
    <circle cx="120" cy="470" r="18" fill="#111827"/>
    <circle cx="120" cy="470" r="8" fill="#fff"/>
    <circle cx="510" cy="240" r="18" fill="#2F6FFF"/>
    <circle cx="510" cy="240" r="8" fill="#fff"/>
    <circle cx="850" cy="390" r="18" fill="#FF00BF"/>
    <circle cx="850" cy="390" r="8" fill="#fff"/>
  </g>

  <g font-family="Arial, sans-serif" font-size="22" fill="#3A4A77" font-weight="700">
    <text x="145" y="467">Origin Hub</text>
    <text x="535" y="237">Ride Match Zone</text>
    <text x="630" y="385">Destination Cluster</text>
  </g>
</svg>
